<svg xmlns="http://www.w3.org/2000/svg" viewBox="0 0 512 512">
  <defs/>
  <path d="M0 686.2c0 13 4.7 22.9 14.2 29.5 9.4 6.7 19.5 9 30.2 7.1 10-2 17.2-5.5 21.2-10.7 4.1-5.2 6.1-13.8 6.1-25.9V544.7c0-10-3.5-18.6-10.5-25.6s-15.5-10.5-25.6-10.5c-9.7 0-18.1 3.5-25.1 10.5S0 534.6 0 544.7v141.5zm112.2 60.5c0 9.5 3.4 16.5 10 21.3 6.7 4.7 15.3 7 25.7 7 10.7 0 19.4-2.3 26-7 6.7-4.8 10-11.8 10-21.3V416.8c0-9.7-3.4-18.1-10.4-25-7-7-15.6-10.6-25.6-10.6-9.8 0-18.2 3.5-25.2 10.5s-10.5 15.4-10.5 25.1v330zM224 762.3c0 9.5 3.4 16.6 10.2 21.3 6.9 4.7 15.7 7 26.4 7 10.4 0 19-2.3 25.6-7 6.7-4.7 10-11.8 10-21.3v-301c0-10.1-3.5-18.8-10.5-26a33.9 33.9 0 00-25.1-10.7c-10 0-18.7 3.6-25.9 10.8S224 451.2 224 461.2v301.1zm112.2 1.5c0 17.9 12 26.8 36.1 26.8s36.2-8.9 36.2-26.8v-488c0-27.3-8.3-42.8-25-46.4-10.7-2.6-21.2.5-31.7 9.3a45.9 45.9 0 00-15.6 37.1v488zM450.4 778V247c0-16.9 5-27 15.2-30.2a285.9 285.9 0 01204 27.3c42.9 23.4 77.6 55.4 104.1 95.9a285.9 285.9 0 0146.1 134 160 160 0 0163.5-12.8c45.5 0 84.5 16.2 116.9 48.4a158 158 0 0148.5 116.1c0 45.6-16.2 84.4-48.5 116.6a159.2 159.2 0 01-116.4 48.4l-424.6-.5c-3-1-5.1-2.8-6.6-5.4s-2.2-4.9-2.2-6.8z"/>
</svg>